# xmcd CD database file
#
# Track frame offsets:
#	150
#	11258
#	22340
#	36950
#	47022
#	59827
#	74850
#	87793
#	102516
#	116497
#	128854
#	142809
#	157514
#	168959
#	181297
#	194416
#	206500
#	220093
#	234354
#	248055
#
# Disc length: 3478 seconds
#
# Revision: 0
# Processed by: cddbd v1.5.2PL0 Copyright (c) Steve Scherf et al.
# Submitted via: CDex 1.70beta2
#
DISCID=170d9414
DTITLE=Various Artist - wall street blues disc 1
DYEAR=1900
DGENRE=Blues
TTITLE0=Money - John Lee Hooker
TTITLE1=I Ned Money - Slim Harpo
TTITLE2=Bad Luck Blues - Albert King
TTITLE3=Work For Your Money - Howlin' Wolf
TTITLE4=Last Dime Blues - Blind Willie Mc Tell
TTITLE5=Money, Marbles and Chalk - Jimmy Rogers
TTITLE6=Maybe I'll Loan You A Dime - Memphis Slim
TTITLE7=My Big Money - Big Bill Broozy
TTITLE8=All My Money's Gone - Roosevelt Sykes
TTITLE9=If You Loose Your Money - Sonny Terry and Brownie McGhee
TTITLE10=I Don't Want Your Money - John Lee Hooker
TTITLE11=Don(t Want No Woman - Joe Johnson and Minnie McCoy
TTITLE12=Dollar Diggin' Woman - Big Charley Bradix
TTITLE13=She's Taking All My Money - Joe Hill Louis
TTITLE14=Working Man's Blues - Lonnie Johnson
TTITLE15=Three Cents Stamp Blues - Sylvester Cotton
TTITLE16=Man You Won't Give Me No Money - Memphis Minnie
TTITLE17=Nothing But Money - Jesse Knight
TTITLE18=House Rent Boogie - John Lee Hooker
TTITLE19=Money Spending Woman - Sonny Terry and Brownie McGhee
EXTD=
EXTT0=
EXTT1=
EXTT2=
EXTT3=
EXTT4=
EXTT5=
EXTT6=
EXTT7=
EXTT8=
EXTT9=
EXTT10=
EXTT11=
EXTT12=
EXTT13=
EXTT14=
EXTT15=
EXTT16=
EXTT17=
EXTT18=
EXTT19=
PLAYORDER=
